<svg xmlns="http://www.w3.org/2000/svg" width="498.952" height="215.243" viewBox="0 0 498.952 215.243">
  <g id="logo" transform="translate(-124.484 -432.5)">
    <g id="Grupo_71" data-name="Grupo 71" transform="translate(-171 -697)">
      <path id="Trazado_46" data-name="Trazado 46" d="M2759.675-3610.758a130.048,130.048,0,0,1-22.224-1.851,108.949,108.949,0,0,1-18.513-4.9,94.749,94.749,0,0,1-26.872-14.982,88.559,88.559,0,0,1-8.849-8.113,81.965,81.965,0,0,1-6.116-7.212,55.279,55.279,0,0,1-5.012-7.776,9.853,9.853,0,0,1,4.415-13.217,9.847,9.847,0,0,1,4.39-1.037,9.876,9.876,0,0,1,5.094,1.415,9.772,9.772,0,0,1,3.69,3.983,41.087,41.087,0,0,0,4.011,5.959,62.317,62.317,0,0,0,4.867,5.471,68.766,68.766,0,0,0,7.048,6.142,76.454,76.454,0,0,0,21.452,11.325,100.212,100.212,0,0,0,32.621,5.1,100.234,100.234,0,0,0,32.688-5.118,76.41,76.41,0,0,0,21.466-11.366,68.573,68.573,0,0,0,7.041-6.153,62.276,62.276,0,0,0,4.852-5.47,41.134,41.134,0,0,0,3.96-5.9,9.9,9.9,0,0,1,8.781-5.36,9.634,9.634,0,0,1,4.447,1.081,9.818,9.818,0,0,1,4.355,13.146,55.351,55.351,0,0,1-5.013,7.777,81.961,81.961,0,0,1-6.116,7.212,88.7,88.7,0,0,1-8.848,8.113,94.736,94.736,0,0,1-26.873,14.982,108.981,108.981,0,0,1-18.513,4.9,130.085,130.085,0,0,1-21.859,1.85Zm-243.209-84.353a52.069,52.069,0,0,1-22.688-15.059,50.925,50.925,0,0,1-11.777-31.5l14.191,4.958a2.71,2.71,0,0,1,1.422,1.15c2.436,4,7.23,10.488,10.58,14.918a28.579,28.579,0,0,0,10.988,8.728,31.4,31.4,0,0,0,7,2.072,38.17,38.17,0,0,0,11.892.431,36.82,36.82,0,0,0,3.779-.754,33.5,33.5,0,0,0,3.667-1.184s11.185-3.762,15.455-10.593a6.119,6.119,0,0,0,1.146-4.506,4.732,4.732,0,0,0-.988-1.976,4.042,4.042,0,0,0-1.593-.838c-.058-.01-.122-.02-.189-.03a5.021,5.021,0,0,0-.593-.039c-.131,0-.226,0-.238,0-.254,0-5.833-.039-18.384-.144a2.534,2.534,0,0,1-2.235-1.381l-3.393-6.641a2.533,2.533,0,0,1-.027-2.252l3.309-6.877a2.535,2.535,0,0,1,2.286-1.436l43.03.038a65.286,65.286,0,0,1-1.777,18.81h0a51.709,51.709,0,0,1-12.332,21.542,50.623,50.623,0,0,1-18.616,12.37,48.294,48.294,0,0,1-16.884,3A54.162,54.162,0,0,1,2516.466-3695.111Zm277.367-3.8h-23.6v-67.352H2757.66v-18.947h12.575v-11.2a30.148,30.148,0,0,1,2.349-12.025,25.383,25.383,0,0,1,6.5-8.99,28.708,28.708,0,0,1,9.826-5.631,37.977,37.977,0,0,1,12.33-1.948,47.594,47.594,0,0,1,7.175.517,35.089,35.089,0,0,1,6.3,1.548,28.624,28.624,0,0,1,5.465,2.586,26.943,26.943,0,0,1,4.657,3.617l-12.577,13.952a7.1,7.1,0,0,0-3.23-1.938,17.135,17.135,0,0,0-5.039-.646c-3.186,0-5.656.927-7.343,2.756-1.872,2.029-2.821,5.217-2.821,9.474v7.923h12.575v18.948h-12.574v67.352Zm-67.993-1.949a29.021,29.021,0,0,1-9.885-5.63,25.462,25.462,0,0,1-6.559-8.99,29.885,29.885,0,0,1-2.376-12.025v-36.345h-12.576v-19.12h12.575v-25.321h23.6v25.321h14.3v19.12h-14.3v32.9a19.91,19.91,0,0,0,.74,5.762,9.565,9.565,0,0,0,2.08,3.776,7.909,7.909,0,0,0,3.211,2.065,12.517,12.517,0,0,0,4.13.627,36.45,36.45,0,0,0,6.2-1.033l5,16.881a25.624,25.624,0,0,1-13.777,3.962h-.308A38.2,38.2,0,0,1,2725.84-3700.86Zm200.8,1.949v-84.059h23.426v8.957a31.77,31.77,0,0,1,21.876-8.957,39.752,39.752,0,0,1,7.924.689l-3.79,22.91a33.961,33.961,0,0,0-8.278-1.126,22.8,22.8,0,0,0-5.316.6,19.155,19.155,0,0,0-4.722,1.814,19.886,19.886,0,0,0-4.136,3.041,25.164,25.164,0,0,0-3.559,4.281v51.847h-23.424Zm-345.31-30.309h0l0,0Zm243.984-3.265a48.237,48.237,0,0,1-.735-8.455,45.618,45.618,0,0,1,3.127-16.959,38.779,38.779,0,0,1,22.016-21.968,45.642,45.642,0,0,1,16.886-3.1,43.678,43.678,0,0,1,16.762,3.152,36.094,36.094,0,0,1,12.691,8.755,38.613,38.613,0,0,1,8.04,13.309,49.191,49.191,0,0,1,2.812,16.813v8.44h-57.876v.014h-23.723Zm33.958-29.873a16.555,16.555,0,0,0-6.1,3.89,12.3,12.3,0,0,0-2.607,4,12.437,12.437,0,0,0-.838,5.082h33.76a12.434,12.434,0,0,0-.839-5.082,12.3,12.3,0,0,0-2.606-4,16.565,16.565,0,0,0-6.1-3.89,21.06,21.06,0,0,0-7.334-1.32h0A21.062,21.062,0,0,0,2859.271-3762.358Zm-235.621,29.872h0Zm-23.723,0a48.215,48.215,0,0,1-.735-8.455,45.617,45.617,0,0,1,3.127-16.959,38.781,38.781,0,0,1,22.016-21.967,45.619,45.619,0,0,1,16.886-3.1,43.659,43.659,0,0,1,16.762,3.151,36.1,36.1,0,0,1,12.693,8.756,38.622,38.622,0,0,1,8.04,13.309,49.207,49.207,0,0,1,2.812,16.813v8.44h-57.878v.014Zm33.959-29.873a16.563,16.563,0,0,0-6.1,3.89,12.306,12.306,0,0,0-2.607,4,12.452,12.452,0,0,0-.838,5.082H2658.1a12.452,12.452,0,0,0-.838-5.082,12.306,12.306,0,0,0-2.607-4,16.568,16.568,0,0,0-6.1-3.89,21.068,21.068,0,0,0-7.334-1.32v0A21.068,21.068,0,0,0,2633.885-3762.359Zm-96.827-9.548a36.21,36.21,0,0,0-25.465,9.537,2.532,2.532,0,0,1-2.508.534l-16.888-5.605a51.38,51.38,0,0,1,12.569-13.834c3.39-2.57,17.142-12.311,36.047-10.2a50.786,50.786,0,0,1,26.639,11.542,52.685,52.685,0,0,1,10.119,11.067l-16.282,7.983A36.046,36.046,0,0,0,2537.058-3771.906Z" transform="translate(-2186 4955)" fill="#fff" stroke="rgba(0,0,0,0)" stroke-width="1"/>
      <path id="Trazado_45" data-name="Trazado 45" d="M2751.965-3795.418a66.241,66.241,0,0,1-10.366-.858,46.86,46.86,0,0,1-11.994-3.546,41.076,41.076,0,0,1-9.853-6.246,38.717,38.717,0,0,1-7.412-8.533,39.315,39.315,0,0,1-4.669-10.4l26.012,4.12a19.29,19.29,0,0,0,10.933,5.551,36.845,36.845,0,0,0,11.279.086,33.458,33.458,0,0,0,10.53-3.434l11.168,15.372a40.282,40.282,0,0,1-7.664,4.381,41.584,41.584,0,0,1-8.532,2.626,49.758,49.758,0,0,1-9.319.88Zm-225.671,0a66.239,66.239,0,0,1-10.366-.858,46.865,46.865,0,0,1-11.994-3.546,41.07,41.07,0,0,1-9.853-6.246,38.717,38.717,0,0,1-7.412-8.533A39.316,39.316,0,0,1,2482-3825l26.012,4.12a19.292,19.292,0,0,0,10.933,5.551,36.845,36.845,0,0,0,11.279.086,33.458,33.458,0,0,0,10.53-3.434l11.168,15.372a40.282,40.282,0,0,1-7.664,4.381,41.582,41.582,0,0,1-8.532,2.626,49.76,49.76,0,0,1-9.32.88Z" transform="translate(-2068.827 5057.735)" fill="#ff5f00" stroke="rgba(0,0,0,0)" stroke-width="1"/>
    </g>
  </g>
</svg>
